<svg width="56" height="56" xmlns="http://www.w3.org/2000/svg" version="1.1" xml:space="preserve">
 <g>
  <title>Layer 1</title>
  <g id="XMLID_2_"/>
  <g id="XMLID_81_" stroke="null">
   <path class="our-company-logo" id="XMLID_88_" d="m6.76683,23.20293c-1.5719,0.10811 -2.87044,2.10801 -2.9046,4.59437c-0.03417,2.70257 1.3327,4.91869 3.04129,4.91869l3.41718,0c0.03417,0 0.03417,-0.05405 0.03417,-0.05405l0,-1.72965c0,-0.05405 -0.03417,-0.05405 -0.03417,-0.05405l-3.45135,0c-0.99098,0 -1.84528,-1.24318 -1.87945,-2.86473c0,-1.62154 0.82013,-2.97283 1.84528,-2.97283l3.45135,0c0.03417,0 0.03417,-0.05405 0.03417,-0.05405l0,-1.72965c0,-0.05405 -0.03417,-0.05405 -0.03417,-0.05405l-3.51969,0l-0.00001,-0.00001l0.00001,0.00001l-0.00001,0z" stroke="null"/>
   <path class="our-company-logo" id="XMLID_87_" d="m15.58315,28.87833c0.99098,0 1.81111,-1.29724 1.77693,-2.86473c0,-1.56749 -0.82013,-2.81067 -1.81111,-2.81067l-4.37398,0c-0.03417,0 -0.03417,0.05405 -0.03417,0.05405l0,9.40496c0,0.05405 0.03417,0.05405 0.03417,0.05405l1.0935,0c0.03417,0 0.03417,-0.05405 0.03417,-0.05405l0,-7.56721c0,-0.05405 0.03417,-0.05405 0.03417,-0.05405l3.24632,0c0.34172,0 0.61509,0.43241 0.64927,0.97293c0,0.54052 -0.27338,1.02698 -0.61509,1.02698l-3.07546,0c-0.03417,0 -0.06834,0.05405 -0.03417,0.10811l3.51969,5.5673l0.03417,0l1.53774,0c0.03417,0 0.06834,-0.05405 0.03417,-0.10811l-2.35785,-3.72955l0,0l0.30754,0l0,0l0.00001,0l-0.00002,-0.00001z" stroke="null"/>
   <path class="our-company-logo" id="XMLID_86_" d="m33.59168,23.20293l-1.0935,0c-0.03417,0 -0.03417,0.05405 -0.03417,0.05405l0,8.43202c0,0.59457 0.30754,1.08103 0.68343,1.08103l4.33982,0c0.03417,0 0.03417,-0.05405 0.03417,-0.05405l0,-1.72965c0,-0.05405 -0.03417,-0.05405 -0.03417,-0.05405l-3.79307,0c-0.03417,0 -0.03417,-0.05405 -0.03417,-0.05405l0,-7.56721c-0.03417,-0.10811 -0.03417,-0.10811 -0.06834,-0.10811l0,0.00001l-0.00001,0.00001l0.00001,0z" stroke="null"/>
   <path class="our-company-logo" id="XMLID_85_" d="m28.50008,23.25698c-0.03417,-0.10811 -0.10252,-0.10811 -0.13668,0l-3.41718,9.40496c0,0.05405 0,0.10811 0.03417,0.10811l1.26436,0c0,0 0.03417,0 0.03417,-0.05405l2.11865,-5.83756c0,-0.05405 0.06834,-0.05405 0.06834,0l1.43521,3.94576c0,0.05405 0,0.10811 -0.03417,0.10811l-1.87945,0c0,0 -0.03417,0 -0.03417,0.05405l-0.61509,1.72965c0,0.05405 0,0.10811 0.03417,0.10811c1.02515,0 4.03227,0 4.51068,0c0.03417,0 0.03417,-0.05405 0.03417,-0.10811c-0.37589,-1.08103 -3.41718,-9.459 -3.41718,-9.459l0,-0.00001l0.00001,-0.00001l-0.00001,-0.00001z" stroke="null"/>
   <path class="our-company-logo" id="XMLID_84_" d="m52.11279,23.20293l-1.43521,0l-0.03417,0l-2.05031,3.89171c0,0.05405 -0.03417,0.05405 -0.06834,0l-2.05031,-3.89171l-0.03417,0c-0.30754,0 -4.78405,0 -6.49264,0c-0.03417,0 -0.03417,0.05405 -0.03417,0.05405l0,1.72965c0,0.05405 0.03417,0.05405 0.03417,0.05405l2.35785,0c0.03417,0 0.03417,0.05405 0.03417,0.05405l0,7.56721c0,0.05405 0.03417,0.05405 0.03417,0.05405l1.0935,0c0.03417,0 0.03417,-0.05405 0.03417,-0.05405l0,-7.56721c0,-0.05405 0.03417,-0.05405 0.03417,-0.05405l2.35785,0l0.03417,0l2.05031,3.89171c0,0 0,0 0,0.05405l0,3.6755c0,0.05405 0.03417,0.05405 0.03417,0.05405l1.0935,0c0.03417,0 0.03417,-0.05405 0.03417,-0.05405l0,-3.6755l0,-0.05405l2.97294,-5.62135c0.03417,-0.05405 0.03417,-0.10811 0,-0.10811l0.00001,0l0.00001,-0.00001l-0.00001,0.00001z" stroke="null"/>
   <path class="our-company-logo" id="XMLID_83_" d="m38.23905,32.71598l1.0935,0c0.03417,0 0.03417,-0.05405 0.03417,-0.05405l0,-9.40496c0,-0.05405 -0.03417,-0.05405 -0.03417,-0.05405l-1.0935,0c-0.03417,0 -0.03417,0.05405 -0.03417,0.05405l0,9.40496c-0.03417,0.05405 0,0.05405 0.03417,0.05405z" stroke="null"/>
   <path class="our-company-logo" id="XMLID_82_" d="m24.39947,24.98663l0,-1.72965c0,-0.05405 -0.03417,-0.05405 -0.03417,-0.05405l-3.383,0l0,0c-1.67442,0 -3.00712,2.16206 -3.00712,4.75653c0,2.64852 1.36688,4.75653 3.00712,4.75653l0,0l3.383,0c0.03417,0 0.03417,-0.05405 0.03417,-0.05405l0,-1.72965c0,-0.05405 -0.03417,-0.05405 -0.03417,-0.05405l-3.383,0l0,0c-0.82013,0 -1.50356,-0.81078 -1.74276,-1.99991l5.12577,0c0.03417,0 0.03417,-0.05405 0.03417,-0.05405l0,-1.72965c0,-0.05405 -0.03417,-0.05405 -0.03417,-0.05405l-5.12577,0c0.23921,-1.13508 0.92264,-1.99991 1.74276,-1.99991l0,0l3.41718,-0.05405l0,0l-0.00001,0l0,0.00001z" stroke="null"/>
  </g>
</svg>